# Cassinooo roulette wheel - 16-sided low-poly cylinder
v 2.000 -0.170 0.000
v 1.848 -0.170 0.765
v 1.414 -0.170 1.414
v 0.765 -0.170 1.848
v 0.000 -0.170 2.000
v -0.765 -0.170 1.848
v -1.414 -0.170 1.414
v -1.848 -0.170 0.765
v -2.000 -0.170 0.000
v -1.848 -0.170 -0.765
v -1.414 -0.170 -1.414
v -0.765 -0.170 -1.848
v 0.000 -0.170 -2.000
v 0.765 -0.170 -1.848
v 1.414 -0.170 -1.414
v 1.848 -0.170 -0.765
v 2.000 0.170 0.000
v 1.848 0.170 0.765
v 1.414 0.170 1.414
v 0.765 0.170 1.848
v 0.000 0.170 2.000
v -0.765 0.170 1.848
v -1.414 0.170 1.414
v -1.848 0.170 0.765
v -2.000 0.170 0.000
v -1.848 0.170 -0.765
v -1.414 0.170 -1.414
v -0.765 0.170 -1.848
v 0.000 0.170 -2.000
v 0.765 0.170 -1.848
v 1.414 0.170 -1.414
v 1.848 0.170 -0.765
v 0 -0.170 0
v 0 0.170 0
f 1 2 18 17
f 2 3 19 18
f 3 4 20 19
f 4 5 21 20
f 5 6 22 21
f 6 7 23 22
f 7 8 24 23
f 8 9 25 24
f 9 10 26 25
f 10 11 27 26
f 11 12 28 27
f 12 13 29 28
f 13 14 30 29
f 14 15 31 30
f 15 16 32 31
f 16 1 17 32
f 33 2 1
f 33 3 2
f 33 4 3
f 33 5 4
f 33 6 5
f 33 7 6
f 33 8 7
f 33 9 8
f 33 10 9
f 33 11 10
f 33 12 11
f 33 13 12
f 33 14 13
f 33 15 14
f 33 16 15
f 33 1 16
f 34 17 18
f 34 18 19
f 34 19 20
f 34 20 21
f 34 21 22
f 34 22 23
f 34 23 24
f 34 24 25
f 34 25 26
f 34 26 27
f 34 27 28
f 34 28 29
f 34 29 30
f 34 30 31
f 34 31 32
f 34 32 17
